<svg width="27" height="27" viewBox="0 0 27 27" fill="none" xmlns="http://www.w3.org/2000/svg">
  <rect x="0.5" y="0.5" width="26" height="26" rx="13" fill="black"/>
  <rect x="0.5" y="0.5" width="26" height="26" rx="13" stroke="white"/>
  <path d="M10.875 22.625C6.5 23.9375 6.5 20.4375 4.75 20M17 25.25V21.8638C17.0328 21.4465 16.9765 21.0271 16.8346 20.6333C16.6928 20.2396 16.4688 19.8805 16.1775 19.58C18.925 19.2738 21.8125 18.2325 21.8125 13.455C21.8123 12.2334 21.3424 11.0586 20.5 10.1738C20.8989 9.10495 20.8707 7.92356 20.4212 6.87501C20.4212 6.87501 19.3888 6.56876 17 8.17001C14.9945 7.62648 12.8805 7.62648 10.875 8.17001C8.48625 6.56876 7.45375 6.87501 7.45375 6.87501C7.00433 7.92356 6.97613 9.10495 7.375 10.1738C6.52636 11.0651 6.05596 12.2505 6.0625 13.4813C6.0625 18.2238 8.95 19.265 11.6975 19.6063C11.4096 19.9037 11.1876 20.2585 11.0459 20.6474C10.9042 21.0364 10.846 21.4508 10.875 21.8638V25.25" stroke="white" stroke-linecap="round" stroke-linejoin="round"/>
</svg>
