<svg width="28" height="28" viewBox="0 0 28 28" fill="none" xmlns="http://www.w3.org/2000/svg">
  <rect x="0.5" y="0.5" width="27" height="27" rx="13.5" fill="black"/>
  <rect x="0.5" y="0.5" width="27" height="27" rx="13.5" stroke="white"/>
  <path d="M17.3333 10.6667C18.6594 10.6667 19.9312 11.1935 20.8689 12.1312C21.8066 13.0688 22.3333 14.3406 22.3333 15.6667V21.5H19V15.6667C19 15.2247 18.8244 14.8007 18.5119 14.4882C18.1993 14.1756 17.7754 14 17.3333 14C16.8913 14 16.4674 14.1756 16.1548 14.4882C15.8423 14.8007 15.6667 15.2247 15.6667 15.6667V21.5H12.3333V15.6667C12.3333 14.3406 12.8601 13.0688 13.7978 12.1312C14.7355 11.1935 16.0073 10.6667 17.3333 10.6667Z" stroke="white" stroke-linecap="round" stroke-linejoin="round"/>
  <path d="M9.00001 11.5H5.66667V21.5H9.00001V11.5Z" stroke="white" stroke-linecap="round" stroke-linejoin="round"/>
  <path d="M7.33334 9.00002C8.25381 9.00002 9.00001 8.25383 9.00001 7.33335C9.00001 6.41288 8.25381 5.66669 7.33334 5.66669C6.41286 5.66669 5.66667 6.41288 5.66667 7.33335C5.66667 8.25383 6.41286 9.00002 7.33334 9.00002Z" stroke="white" stroke-linecap="round" stroke-linejoin="round"/>
</svg>
