<svg width="311" height="343" viewBox="0 0 311 343" fill="none" xmlns="http://www.w3.org/2000/svg">
<path d="M0.5 20C0.5 8.9543 9.4543 0 20.5 0H290.5C301.546 0 310.5 8.9543 310.5 20V323C310.5 334.046 301.546 343 290.5 343H20.5C9.4543 343 0.5 334.046 0.5 323V20Z" fill="black"/>
<path d="M5.5 288H305.5V323C305.5 331.284 298.784 338 290.5 338H20.5C12.2157 338 5.5 331.284 5.5 323V288Z" fill="#7E7E7E"/>
<path d="M5.5 20C5.5 11.7157 12.2157 5 20.5 5H290.5C298.784 5 305.5 11.7157 305.5 20V288H5.5V20Z" fill="#B3B3B3"/>
<path d="M20.3608 310V301.273H25.9517V302.598H21.9418V304.967H25.5682V306.293H21.9418V310H20.3608ZM29.1488 310.132C28.734 310.132 28.3604 310.058 28.0281 309.911C27.6985 309.76 27.4371 309.538 27.244 309.246C27.0536 308.953 26.9585 308.592 26.9585 308.163C26.9585 307.794 27.0266 307.489 27.163 307.247C27.2994 307.006 27.4854 306.812 27.7212 306.668C27.957 306.523 28.2227 306.413 28.5181 306.339C28.8164 306.263 29.1246 306.207 29.4428 306.173C29.8263 306.134 30.1374 306.098 30.3761 306.067C30.6147 306.033 30.788 305.982 30.896 305.913C31.0067 305.842 31.0621 305.733 31.0621 305.585V305.56C31.0621 305.239 30.967 304.99 30.7766 304.814C30.5863 304.638 30.3121 304.55 29.9542 304.55C29.5763 304.55 29.2766 304.632 29.055 304.797C28.8363 304.962 28.6886 305.156 28.6119 305.381L27.1715 305.176C27.2852 304.778 27.4727 304.446 27.734 304.179C27.9954 303.909 28.315 303.707 28.6928 303.574C29.0707 303.438 29.4883 303.369 29.9457 303.369C30.261 303.369 30.5749 303.406 30.8874 303.48C31.1999 303.554 31.4854 303.676 31.744 303.847C32.0025 304.014 32.2099 304.243 32.3661 304.533C32.5252 304.822 32.6048 305.185 32.6048 305.619V310H31.1218V309.101H31.0707C30.9769 309.283 30.8448 309.453 30.6744 309.612C30.5067 309.768 30.2951 309.895 30.0394 309.991C29.7866 310.085 29.4897 310.132 29.1488 310.132ZM29.5494 308.999C29.859 308.999 30.1275 308.937 30.3548 308.815C30.582 308.69 30.7567 308.526 30.8789 308.321C31.0039 308.116 31.0664 307.893 31.0664 307.652V306.881C31.0181 306.92 30.9357 306.957 30.8192 306.991C30.7056 307.026 30.5778 307.055 30.4357 307.081C30.2937 307.107 30.1531 307.129 30.0138 307.149C29.8746 307.169 29.7539 307.186 29.6516 307.2C29.4215 307.232 29.2156 307.283 29.0337 307.354C28.8519 307.425 28.7085 307.524 28.6033 307.652C28.4982 307.777 28.4457 307.939 28.4457 308.138C28.4457 308.422 28.5494 308.636 28.7567 308.781C28.9641 308.926 29.2283 308.999 29.5494 308.999ZM34.1559 310V303.455H35.6303V304.567H35.707C35.8434 304.192 36.0692 303.899 36.3846 303.689C36.6999 303.476 37.0763 303.369 37.5138 303.369C37.957 303.369 38.3306 303.477 38.6346 303.693C38.9414 303.906 39.1573 304.197 39.2823 304.567H39.3505C39.4954 304.203 39.7397 303.913 40.0835 303.697C40.43 303.479 40.8406 303.369 41.315 303.369C41.9173 303.369 42.4087 303.56 42.7894 303.94C43.1701 304.321 43.3604 304.876 43.3604 305.607V310H41.8136V305.845C41.8136 305.439 41.7056 305.142 41.4897 304.955C41.2738 304.764 41.0096 304.669 40.6971 304.669C40.3249 304.669 40.0337 304.786 39.8235 305.018C39.6161 305.249 39.5124 305.548 39.5124 305.918V310H37.9996V305.781C37.9996 305.443 37.8974 305.173 37.6928 304.972C37.4911 304.77 37.2269 304.669 36.9002 304.669C36.6786 304.669 36.4769 304.726 36.2951 304.839C36.1133 304.95 35.9684 305.108 35.8604 305.312C35.7525 305.514 35.6985 305.75 35.6985 306.02V310H34.1559ZM44.9254 310V303.455H46.468V310H44.9254ZM45.701 302.526C45.4567 302.526 45.2464 302.445 45.0703 302.283C44.8942 302.118 44.8061 301.92 44.8061 301.69C44.8061 301.457 44.8942 301.26 45.0703 301.098C45.2464 300.933 45.4567 300.851 45.701 300.851C45.9482 300.851 46.1584 300.933 46.3317 301.098C46.5078 301.26 46.5959 301.457 46.5959 301.69C46.5959 301.92 46.5078 302.118 46.3317 302.283C46.1584 302.445 45.9482 302.526 45.701 302.526ZM49.5969 301.273V310H48.0543V301.273H49.5969ZM52.142 312.455C51.9318 312.455 51.7372 312.438 51.5582 312.403C51.3821 312.372 51.2415 312.335 51.1364 312.293L51.4943 311.091C51.7188 311.156 51.919 311.188 52.0952 311.185C52.2713 311.182 52.4261 311.126 52.5597 311.018C52.696 310.913 52.8111 310.737 52.9048 310.49L53.0369 310.136L50.6634 303.455H52.2997L53.8082 308.398H53.8764L55.3892 303.455H57.0298L54.4091 310.793C54.2869 311.139 54.125 311.436 53.9233 311.683C53.7216 311.933 53.4744 312.124 53.1818 312.254C52.892 312.388 52.5455 312.455 52.142 312.455ZM58.1655 310V301.273H61.5064C62.1371 301.273 62.6612 301.372 63.0788 301.571C63.4993 301.767 63.8132 302.036 64.0206 302.376C64.2308 302.717 64.3359 303.104 64.3359 303.536C64.3359 303.891 64.2678 304.195 64.1314 304.447C63.995 304.697 63.8118 304.901 63.5817 305.057C63.3516 305.213 63.0945 305.325 62.8104 305.393V305.479C63.12 305.496 63.4169 305.591 63.701 305.764C63.9879 305.935 64.2223 306.176 64.4041 306.489C64.5859 306.801 64.6768 307.179 64.6768 307.622C64.6768 308.074 64.5675 308.48 64.3487 308.841C64.13 309.199 63.8004 309.482 63.3601 309.689C62.9197 309.896 62.3658 310 61.6982 310H58.1655ZM59.7464 308.679H61.4467C62.0206 308.679 62.4339 308.57 62.6868 308.351C62.9425 308.129 63.0703 307.845 63.0703 307.499C63.0703 307.24 63.0064 307.007 62.8786 306.8C62.7507 306.589 62.5689 306.425 62.3331 306.305C62.0973 306.183 61.8161 306.122 61.4893 306.122H59.7464V308.679ZM59.7464 304.984H61.3104C61.5831 304.984 61.8288 304.935 62.0476 304.835C62.2663 304.733 62.4382 304.589 62.5632 304.405C62.6911 304.217 62.755 303.996 62.755 303.74C62.755 303.402 62.6357 303.124 62.397 302.905C62.1612 302.686 61.8104 302.577 61.3445 302.577H59.7464V304.984ZM68.8391 310.128C68.1999 310.128 67.646 309.987 67.1772 309.706C66.7085 309.425 66.3448 309.031 66.0863 308.526C65.8306 308.02 65.7028 307.429 65.7028 306.753C65.7028 306.077 65.8306 305.484 66.0863 304.976C66.3448 304.467 66.7085 304.072 67.1772 303.791C67.646 303.51 68.1999 303.369 68.8391 303.369C69.4783 303.369 70.0323 303.51 70.5011 303.791C70.9698 304.072 71.332 304.467 71.5877 304.976C71.8462 305.484 71.9755 306.077 71.9755 306.753C71.9755 307.429 71.8462 308.02 71.5877 308.526C71.332 309.031 70.9698 309.425 70.5011 309.706C70.0323 309.987 69.4783 310.128 68.8391 310.128ZM68.8477 308.892C69.1942 308.892 69.484 308.797 69.717 308.607C69.9499 308.413 70.1232 308.155 70.2369 307.831C70.3533 307.507 70.4116 307.146 70.4116 306.749C70.4116 306.348 70.3533 305.986 70.2369 305.662C70.1232 305.335 69.9499 305.075 69.717 304.882C69.484 304.689 69.1942 304.592 68.8477 304.592C68.4925 304.592 68.1971 304.689 67.9613 304.882C67.7283 305.075 67.5536 305.335 67.4371 305.662C67.3235 305.986 67.2667 306.348 67.2667 306.749C67.2667 307.146 67.3235 307.507 67.4371 307.831C67.5536 308.155 67.7283 308.413 67.9613 308.607C68.1971 308.797 68.4925 308.892 68.8477 308.892ZM76.1399 310.128C75.5007 310.128 74.9467 309.987 74.478 309.706C74.0092 309.425 73.6456 309.031 73.3871 308.526C73.1314 308.02 73.0036 307.429 73.0036 306.753C73.0036 306.077 73.1314 305.484 73.3871 304.976C73.6456 304.467 74.0092 304.072 74.478 303.791C74.9467 303.51 75.5007 303.369 76.1399 303.369C76.7791 303.369 77.3331 303.51 77.8018 303.791C78.2706 304.072 78.6328 304.467 78.8885 304.976C79.147 305.484 79.2763 306.077 79.2763 306.753C79.2763 307.429 79.147 308.02 78.8885 308.526C78.6328 309.031 78.2706 309.425 77.8018 309.706C77.3331 309.987 76.7791 310.128 76.1399 310.128ZM76.1484 308.892C76.495 308.892 76.7848 308.797 77.0178 308.607C77.2507 308.413 77.424 308.155 77.5376 307.831C77.6541 307.507 77.7124 307.146 77.7124 306.749C77.7124 306.348 77.6541 305.986 77.5376 305.662C77.424 305.335 77.2507 305.075 77.0178 304.882C76.7848 304.689 76.495 304.592 76.1484 304.592C75.7933 304.592 75.4979 304.689 75.2621 304.882C75.0291 305.075 74.8544 305.335 74.7379 305.662C74.6243 305.986 74.5675 306.348 74.5675 306.749C74.5675 307.146 74.6243 307.507 74.7379 307.831C74.8544 308.155 75.0291 308.413 75.2621 308.607C75.4979 308.797 75.7933 308.892 76.1484 308.892ZM81.9918 307.946L81.9876 306.084H82.2347L84.587 303.455H86.3896L83.4961 306.676H83.1765L81.9918 307.946ZM80.5856 310V301.273H82.1282V310H80.5856ZM84.6935 310L82.5629 307.021L83.6026 305.935L86.5387 310H84.6935ZM88.6065 310H86.919L89.9915 301.273H91.9432L95.0199 310H93.3324L91.0014 303.062H90.9332L88.6065 310ZM88.6619 306.578H93.2642V307.848H88.6619V306.578ZM96.1012 312.455V303.455H97.6183V304.537H97.7077C97.7873 304.378 97.8995 304.209 98.0444 304.03C98.1893 303.848 98.3853 303.693 98.6325 303.565C98.8796 303.435 99.195 303.369 99.5785 303.369C100.084 303.369 100.54 303.499 100.946 303.757C101.355 304.013 101.679 304.392 101.918 304.895C102.159 305.395 102.28 306.009 102.28 306.736C102.28 307.455 102.162 308.065 101.926 308.568C101.691 309.071 101.37 309.455 100.963 309.719C100.557 309.983 100.097 310.115 99.5827 310.115C99.2077 310.115 98.8967 310.053 98.6495 309.928C98.4023 309.803 98.2035 309.652 98.0529 309.476C97.9052 309.297 97.7901 309.128 97.7077 308.969H97.6438V312.455H96.1012ZM97.614 306.727C97.614 307.151 97.6737 307.521 97.793 307.839C97.9151 308.158 98.0898 308.406 98.3171 308.585C98.5472 308.761 98.8256 308.849 99.1523 308.849C99.4933 308.849 99.7788 308.759 100.009 308.577C100.239 308.392 100.412 308.141 100.529 307.822C100.648 307.501 100.708 307.136 100.708 306.727C100.708 306.321 100.65 305.96 100.533 305.645C100.417 305.33 100.243 305.082 100.013 304.903C99.783 304.724 99.4961 304.635 99.1523 304.635C98.8228 304.635 98.543 304.722 98.3129 304.895C98.0827 305.068 97.908 305.311 97.7887 305.624C97.6722 305.936 97.614 306.304 97.614 306.727ZM103.601 312.455V303.455H105.118V304.537H105.208C105.287 304.378 105.4 304.209 105.544 304.03C105.689 303.848 105.885 303.693 106.132 303.565C106.38 303.435 106.695 303.369 107.078 303.369C107.584 303.369 108.04 303.499 108.446 303.757C108.855 304.013 109.179 304.392 109.418 304.895C109.659 305.395 109.78 306.009 109.78 306.736C109.78 307.455 109.662 308.065 109.426 308.568C109.191 309.071 108.87 309.455 108.463 309.719C108.057 309.983 107.597 310.115 107.083 310.115C106.708 310.115 106.397 310.053 106.15 309.928C105.902 309.803 105.703 309.652 105.553 309.476C105.405 309.297 105.29 309.128 105.208 308.969H105.144V312.455H103.601ZM105.114 306.727C105.114 307.151 105.174 307.521 105.293 307.839C105.415 308.158 105.59 308.406 105.817 308.585C106.047 308.761 106.326 308.849 106.652 308.849C106.993 308.849 107.279 308.759 107.509 308.577C107.739 308.392 107.912 308.141 108.029 307.822C108.148 307.501 108.208 307.136 108.208 306.727C108.208 306.321 108.15 305.96 108.033 305.645C107.917 305.33 107.743 305.082 107.513 304.903C107.283 304.724 106.996 304.635 106.652 304.635C106.323 304.635 106.043 304.722 105.813 304.895C105.583 305.068 105.408 305.311 105.289 305.624C105.172 305.936 105.114 306.304 105.114 306.727Z" fill="white"/>
<path d="M23.1648 315.727H24.0455V320.926C24.0455 321.39 23.9602 321.784 23.7898 322.109C23.6193 322.433 23.379 322.679 23.0689 322.847C22.7588 323.015 22.393 323.099 21.9716 323.099C21.5739 323.099 21.2199 323.027 20.9098 322.883C20.5997 322.736 20.3558 322.528 20.1783 322.258C20.0007 321.988 19.9119 321.667 19.9119 321.295H20.7784C20.7784 321.501 20.8293 321.681 20.9311 321.835C21.0353 321.987 21.1773 322.105 21.3572 322.19C21.5372 322.276 21.742 322.318 21.9716 322.318C22.2249 322.318 22.4403 322.265 22.6179 322.158C22.7955 322.052 22.9304 321.896 23.0227 321.69C23.1174 321.481 23.1648 321.227 23.1648 320.926V315.727ZM27.3018 323.128C26.9562 323.128 26.6425 323.063 26.3608 322.933C26.0791 322.8 25.8554 322.609 25.6896 322.361C25.5239 322.11 25.4411 321.807 25.4411 321.452C25.4411 321.139 25.5026 320.886 25.6257 320.692C25.7488 320.495 25.9134 320.341 26.1193 320.23C26.3253 320.119 26.5526 320.036 26.8011 319.982C27.0521 319.925 27.3042 319.88 27.5575 319.847C27.889 319.804 28.1577 319.772 28.3636 319.751C28.572 319.727 28.7235 319.688 28.8182 319.634C28.9152 319.579 28.9638 319.484 28.9638 319.349V319.321C28.9638 318.971 28.8679 318.698 28.6761 318.504C28.4867 318.31 28.1991 318.213 27.8132 318.213C27.4131 318.213 27.0994 318.301 26.8722 318.476C26.6449 318.651 26.4851 318.838 26.3928 319.037L25.5973 318.753C25.7393 318.421 25.9287 318.163 26.1655 317.979C26.4046 317.792 26.665 317.661 26.9467 317.588C27.2308 317.512 27.5102 317.474 27.7848 317.474C27.96 317.474 28.1612 317.496 28.3885 317.538C28.6181 317.579 28.8395 317.663 29.0526 317.79C29.268 317.918 29.4467 318.111 29.5888 318.369C29.7308 318.627 29.8018 318.973 29.8018 319.406V323H28.9638V322.261H28.9212C28.8643 322.38 28.7696 322.506 28.6371 322.641C28.5045 322.776 28.3281 322.891 28.108 322.986C27.8878 323.08 27.6191 323.128 27.3018 323.128ZM27.4297 322.375C27.7611 322.375 28.0405 322.31 28.2678 322.18C28.4974 322.049 28.6702 321.881 28.7862 321.675C28.9046 321.469 28.9638 321.253 28.9638 321.026V320.259C28.9283 320.301 28.8501 320.34 28.7294 320.376C28.611 320.409 28.4737 320.438 28.3175 320.464C28.1636 320.488 28.0133 320.509 27.8665 320.528C27.7221 320.545 27.6049 320.559 27.5149 320.571C27.2971 320.599 27.0935 320.646 26.9041 320.71C26.7171 320.771 26.5656 320.865 26.4496 320.99C26.3359 321.113 26.2791 321.281 26.2791 321.494C26.2791 321.786 26.3868 322.006 26.6023 322.155C26.8201 322.302 27.0959 322.375 27.4297 322.375ZM35.5964 317.545L33.5794 323H32.7271L30.71 317.545H31.6191L33.1248 321.892H33.1816L34.6873 317.545H35.5964ZM38.1417 323.128C37.796 323.128 37.4824 323.063 37.2006 322.933C36.9189 322.8 36.6952 322.609 36.5295 322.361C36.3638 322.11 36.2809 321.807 36.2809 321.452C36.2809 321.139 36.3424 320.886 36.4656 320.692C36.5887 320.495 36.7532 320.341 36.9592 320.23C37.1651 320.119 37.3924 320.036 37.641 319.982C37.8919 319.925 38.1441 319.88 38.3974 319.847C38.7288 319.804 38.9975 319.772 39.2035 319.751C39.4118 319.727 39.5633 319.688 39.658 319.634C39.7551 319.579 39.8036 319.484 39.8036 319.349V319.321C39.8036 318.971 39.7077 318.698 39.516 318.504C39.3266 318.31 39.0389 318.213 38.6531 318.213C38.253 318.213 37.9393 318.301 37.712 318.476C37.4847 318.651 37.3249 318.838 37.2326 319.037L36.4371 318.753C36.5792 318.421 36.7686 318.163 37.0053 317.979C37.2444 317.792 37.5049 317.661 37.7866 317.588C38.0707 317.512 38.35 317.474 38.6246 317.474C38.7998 317.474 39.0011 317.496 39.2283 317.538C39.458 317.579 39.6793 317.663 39.8924 317.79C40.1078 317.918 40.2866 318.111 40.4286 318.369C40.5707 318.627 40.6417 318.973 40.6417 319.406V323H39.8036V322.261H39.761C39.7042 322.38 39.6095 322.506 39.4769 322.641C39.3443 322.776 39.168 322.891 38.9478 322.986C38.7276 323.08 38.4589 323.128 38.1417 323.128ZM38.2695 322.375C38.601 322.375 38.8803 322.31 39.1076 322.18C39.3372 322.049 39.5101 321.881 39.6261 321.675C39.7444 321.469 39.8036 321.253 39.8036 321.026V320.259C39.7681 320.301 39.69 320.34 39.5692 320.376C39.4509 320.409 39.3136 320.438 39.1573 320.464C39.0034 320.488 38.8531 320.509 38.7063 320.528C38.5619 320.545 38.4447 320.559 38.3548 320.571C38.137 320.599 37.9334 320.646 37.744 320.71C37.5569 320.771 37.4054 320.865 37.2894 320.99C37.1758 321.113 37.119 321.281 37.119 321.494C37.119 321.786 37.2267 322.006 37.4421 322.155C37.6599 322.302 37.9357 322.375 38.2695 322.375ZM47.5549 315.386L45.2111 324.094H44.4441L46.7878 315.386H47.5549ZM57.3267 318H56.446C56.3939 317.747 56.3028 317.524 56.1726 317.332C56.0447 317.141 55.8885 316.98 55.7038 316.849C55.5215 316.717 55.3191 316.617 55.0966 316.551C54.8741 316.485 54.642 316.452 54.4006 316.452C53.9602 316.452 53.5613 316.563 53.2038 316.786C52.8487 317.008 52.5658 317.336 52.3551 317.769C52.1468 318.202 52.0426 318.734 52.0426 319.364C52.0426 319.993 52.1468 320.525 52.3551 320.958C52.5658 321.391 52.8487 321.719 53.2038 321.942C53.5613 322.164 53.9602 322.276 54.4006 322.276C54.642 322.276 54.8741 322.242 55.0966 322.176C55.3191 322.11 55.5215 322.012 55.7038 321.881C55.8885 321.749 56.0447 321.587 56.1726 321.395C56.3028 321.201 56.3939 320.978 56.446 320.727H57.3267C57.2604 321.099 57.1397 321.432 56.9645 321.725C56.7893 322.019 56.5715 322.268 56.3111 322.474C56.0507 322.678 55.7583 322.833 55.4339 322.94C55.112 323.046 54.7675 323.099 54.4006 323.099C53.7803 323.099 53.2287 322.948 52.7457 322.645C52.2628 322.342 51.8828 321.911 51.6058 321.352C51.3288 320.794 51.1903 320.131 51.1903 319.364C51.1903 318.597 51.3288 317.934 51.6058 317.375C51.8828 316.816 52.2628 316.385 52.7457 316.082C53.2287 315.779 53.7803 315.628 54.4006 315.628C54.7675 315.628 55.112 315.681 55.4339 315.788C55.7583 315.894 56.0507 316.05 56.3111 316.256C56.5715 316.46 56.7893 316.709 56.9645 317.002C57.1397 317.293 57.2604 317.626 57.3267 318ZM62.7271 317.545C62.6845 317.186 62.5117 316.906 62.2086 316.707C61.9056 316.509 61.5339 316.409 61.0936 316.409C60.7716 316.409 60.4899 316.461 60.2484 316.565C60.0093 316.67 59.8223 316.813 59.6873 316.995C59.5547 317.177 59.4885 317.384 59.4885 317.616C59.4885 317.811 59.5346 317.978 59.627 318.117C59.7217 318.254 59.8424 318.369 59.9892 318.462C60.1359 318.552 60.2898 318.626 60.4508 318.685C60.6118 318.742 60.7598 318.788 60.8947 318.824L61.6333 319.023C61.8227 319.072 62.0334 319.141 62.2654 319.229C62.4998 319.316 62.7235 319.436 62.9366 319.587C63.152 319.737 63.3296 319.928 63.4693 320.163C63.609 320.397 63.6788 320.685 63.6788 321.026C63.6788 321.419 63.5758 321.774 63.3699 322.091C63.1663 322.408 62.868 322.66 62.475 322.847C62.0843 323.034 61.6097 323.128 61.051 323.128C60.5301 323.128 60.0791 323.044 59.698 322.876C59.3192 322.708 59.0209 322.473 58.8031 322.173C58.5877 321.872 58.4657 321.523 58.4373 321.125H59.3464C59.3701 321.4 59.4624 321.627 59.6234 321.807C59.7868 321.984 59.9927 322.117 60.2413 322.205C60.4922 322.29 60.7621 322.332 61.051 322.332C61.3871 322.332 61.689 322.278 61.9565 322.169C62.224 322.058 62.4359 321.904 62.5922 321.707C62.7484 321.509 62.8265 321.277 62.8265 321.011C62.8265 320.77 62.7591 320.573 62.6241 320.422C62.4892 320.27 62.3116 320.147 62.0914 320.053C61.8713 319.958 61.6333 319.875 61.3777 319.804L60.4828 319.548C59.9146 319.385 59.4648 319.152 59.1333 318.849C58.8019 318.546 58.6362 318.149 58.6362 317.659C58.6362 317.252 58.7463 316.897 58.9664 316.594C59.189 316.288 59.4873 316.052 59.8613 315.884C60.2377 315.713 60.658 315.628 61.122 315.628C61.5907 315.628 62.0074 315.712 62.372 315.88C62.7366 316.046 63.0254 316.273 63.2385 316.562C63.4539 316.851 63.5675 317.179 63.5794 317.545H62.7271ZM69.104 317.545C69.0614 317.186 68.8886 316.906 68.5856 316.707C68.2826 316.509 67.9109 316.409 67.4705 316.409C67.1486 316.409 66.8668 316.461 66.6254 316.565C66.3862 316.67 66.1992 316.813 66.0643 316.995C65.9317 317.177 65.8654 317.384 65.8654 317.616C65.8654 317.811 65.9116 317.978 66.0039 318.117C66.0986 318.254 66.2193 318.369 66.3661 318.462C66.5129 318.552 66.6668 318.626 66.8278 318.685C66.9888 318.742 67.1367 318.788 67.2717 318.824L68.0103 319.023C68.1997 319.072 68.4104 319.141 68.6424 319.229C68.8768 319.316 69.1005 319.436 69.3136 319.587C69.529 319.737 69.7066 319.928 69.8462 320.163C69.9859 320.397 70.0558 320.685 70.0558 321.026C70.0558 321.419 69.9528 321.774 69.7468 322.091C69.5432 322.408 69.2449 322.66 68.8519 322.847C68.4613 323.034 67.9866 323.128 67.4279 323.128C66.9071 323.128 66.4561 323.044 66.0749 322.876C65.6961 322.708 65.3978 322.473 65.18 322.173C64.9646 321.872 64.8427 321.523 64.8143 321.125H65.7234C65.747 321.4 65.8394 321.627 66.0004 321.807C66.1637 321.984 66.3697 322.117 66.6183 322.205C66.8692 322.29 67.1391 322.332 67.4279 322.332C67.7641 322.332 68.0659 322.278 68.3335 322.169C68.601 322.058 68.8129 321.904 68.9691 321.707C69.1254 321.509 69.2035 321.277 69.2035 321.011C69.2035 320.77 69.136 320.573 69.0011 320.422C68.8661 320.27 68.6886 320.147 68.4684 320.053C68.2482 319.958 68.0103 319.875 67.7546 319.804L66.8597 319.548C66.2915 319.385 65.8417 319.152 65.5103 318.849C65.1789 318.546 65.0131 318.149 65.0131 317.659C65.0131 317.252 65.1232 316.897 65.3434 316.594C65.5659 316.288 65.8642 316.052 66.2383 315.884C66.6147 315.713 67.0349 315.628 67.4989 315.628C67.9677 315.628 68.3844 315.712 68.7489 315.88C69.1135 316.046 69.4023 316.273 69.6154 316.562C69.8308 316.851 69.9445 317.179 69.9563 317.545H69.104Z" fill="white"/>
<line x1="4.50005" y1="287.5" x2="305.5" y2="287.527" stroke="black"/>
</svg>
