<svg width="141" height="119" viewBox="0 0 141 119" fill="none" xmlns="http://www.w3.org/2000/svg">
  <path d="M75.3143 36.1808L74.6592 81.2207H67.0685L66.4141 36.1808H75.3143ZM70.8642 99.3345C69.2496 99.3345 67.8646 98.794 66.7086 97.7129C65.5525 96.6318 64.9745 95.3367 64.9745 93.8268C64.9745 92.3176 65.5525 91.0224 66.7086 89.9414C67.8646 88.8603 69.2496 88.3197 70.8642 88.3197C72.4781 88.3197 73.8631 88.8603 75.0192 89.9414C76.1752 91.0224 76.754 92.3176 76.754 93.8268C76.754 94.8264 76.4812 95.7446 75.9355 96.5807C75.4122 97.4174 74.7032 98.0905 73.8091 98.6001C72.9359 99.0902 71.9548 99.3345 70.8642 99.3345Z" fill="white"/>
  <path d="M59.5799 8.90711C64.4238 1.03096 76.5762 1.03096 81.42 8.90711L136.328 98.1888C141.158 106.042 135.096 115.842 125.408 115.842H15.5922C5.90424 115.842 -0.158292 106.042 4.6715 98.1888L59.5799 8.90711Z" stroke="white" stroke-width="5"/>
</svg>
